<svg version="1.1" xmlns="http://www.w3.org/2000/svg" xmlns:xlink="http://www.w3.org/1999/xlink" width="806" height="632"><defs></defs><g><g transform="translate(-6,-30) scale(1,1)"><path fill="#ffffff" stroke="none" d="M 32.32072727272727 113.68 C 32.32072727272727 108.886167936 36.206569597672726 105 41 105 C 45.793430402327274 105 49.67927272727273 108.886167936 49.67927272727273 113.68 C 49.67927272727273 118.473832064 45.793430402327274 122.36 41 122.36 C 36.206569597672726 122.36 32.32072727272727 118.473832064 32.32072727272727 113.68 Z"></path></g><g transform="translate(-6,-30) scale(1,1)"><path fill="none" stroke="#000000" d="M 32.32072727272727 113.68 C 32.32072727272727 108.886167936 36.206569597672726 105 41 105 C 45.793430402327274 105 49.67927272727273 108.886167936 49.67927272727273 113.68 C 49.67927272727273 118.473832064 45.793430402327274 122.36 41 122.36 C 36.206569597672726 122.36 32.32072727272727 118.473832064 32.32072727272727 113.68 Z" stroke-miterlimit="10"></path></g><g transform="translate(-6,-30) scale(1,1)"><path fill="none" stroke="#000000" d="M 41 122.36 L 41 139.64" stroke-miterlimit="10"></path></g><g transform="translate(-6,-30) scale(1,1)"><path fill="none" stroke="#000000" d="M 31.810181818181817 128.84 L 50.18981818181818 128.84" stroke-miterlimit="10"></path></g><g transform="translate(-6,-30) scale(1,1)"><path fill="none" stroke="#000000" d="M 41 139.64 L 28.236363636363635 157" stroke-miterlimit="10"></path></g><g transform="translate(-6,-30) scale(1,1)"><path fill="none" stroke="#000000" d="M 41 139.64 L 53.763636363636365 157" stroke-miterlimit="10"></path></g><g transform="translate(-6,-30) scale(1,1)"><g><path fill="none" stroke="none"></path><text fill="#000000" stroke="none" font-family="Arial" font-size="13px" font-style="normal" font-weight="bold" text-decoration="none" x="22.5" y="177.5">Admin</text></g></g><g transform="translate(-6,-30) scale(1,1)"><path fill="#C0C0C0" stroke="none" d="M 119 483 C 119 467.5360256 206.0806064 455 313.5 455 C 420.91939360000003 455 508 467.5360256 508 483 C 508 498.4639744 420.91939360000003 511 313.5 511 C 206.0806064 511 119 498.4639744 119 483 Z" opacity="0.2"></path></g><g transform="translate(-6,-30) scale(1,1)"><path fill="#ffffff" stroke="none" d="M 112 476 C 112 460.5360256 199.0806064 448 306.5 448 C 413.91939360000003 448 501 460.5360256 501 476 C 501 491.4639744 413.91939360000003 504 306.5 504 C 199.0806064 504 112 491.4639744 112 476 Z"></path></g><g transform="translate(-6,-30) scale(1,1)"><path fill="none" stroke="#000000" d="M 112 476 C 112 460.5360256 199.0806064 448 306.5 448 C 413.91939360000003 448 501 460.5360256 501 476 C 501 491.4639744 413.91939360000003 504 306.5 504 C 199.0806064 504 112 491.4639744 112 476 Z" stroke-miterlimit="10"></path></g><g transform="translate(-6,-30) scale(1,1)"><g><path fill="none" stroke="none"></path><text fill="#000000" stroke="none" font-family="Arial" font-size="13px" font-style="normal" font-weight="normal" text-decoration="none" x="178" y="474.5">«Visualizar Conteúdo e Realizar Exercícios»</text></g></g><g transform="translate(-6,-30) scale(1,1)"><g><path fill="none" stroke="none"></path><text fill="#000000" stroke="none" font-family="Arial" font-size="13px" font-style="normal" font-weight="bold" text-decoration="none" x="185" y="489.5">Visualizar Conteúdo e Realizar Exercícios</text></g></g><g transform="translate(-6,-30) scale(1,1)"><path fill="#ffffff" stroke="none" d="M 39.82072727272727 465.68 C 39.82072727272727 460.886167936 43.706569597672726 457 48.5 457 C 53.293430402327274 457 57.17927272727273 460.886167936 57.17927272727273 465.68 C 57.17927272727273 470.473832064 53.293430402327274 474.36 48.5 474.36 C 43.706569597672726 474.36 39.82072727272727 470.473832064 39.82072727272727 465.68 Z"></path></g><g transform="translate(-6,-30) scale(1,1)"><path fill="none" stroke="#000000" d="M 39.82072727272727 465.68 C 39.82072727272727 460.886167936 43.706569597672726 457 48.5 457 C 53.293430402327274 457 57.17927272727273 460.886167936 57.17927272727273 465.68 C 57.17927272727273 470.473832064 53.293430402327274 474.36 48.5 474.36 C 43.706569597672726 474.36 39.82072727272727 470.473832064 39.82072727272727 465.68 Z" stroke-miterlimit="10"></path></g><g transform="translate(-6,-30) scale(1,1)"><path fill="none" stroke="#000000" d="M 48.5 474.36 L 48.5 491.64" stroke-miterlimit="10"></path></g><g transform="translate(-6,-30) scale(1,1)"><path fill="none" stroke="#000000" d="M 39.31018181818182 480.84 L 57.68981818181818 480.84" stroke-miterlimit="10"></path></g><g transform="translate(-6,-30) scale(1,1)"><path fill="none" stroke="#000000" d="M 48.5 491.64 L 35.736363636363635 509" stroke-miterlimit="10"></path></g><g transform="translate(-6,-30) scale(1,1)"><path fill="none" stroke="#000000" d="M 48.5 491.64 L 61.263636363636365 509" stroke-miterlimit="10"></path></g><g transform="translate(-6,-30) scale(1,1)"><g><path fill="none" stroke="none"></path><text fill="#000000" stroke="none" font-family="Arial" font-size="13px" font-style="normal" font-weight="bold" text-decoration="none" x="32" y="529.5">Aluno</text></g></g><g transform="translate(-6,-30) scale(1,1)"><path fill="#ffffff" stroke="none" d="M 41.32072727272727 577.6800000000001 C 41.32072727272727 572.8861679360001 45.206569597672726 569 50 569 C 54.793430402327274 569 58.67927272727273 572.8861679360001 58.67927272727273 577.6800000000001 C 58.67927272727273 582.473832064 54.793430402327274 586.36 50 586.36 C 45.206569597672726 586.36 41.32072727272727 582.473832064 41.32072727272727 577.6800000000001 Z"></path></g><g transform="translate(-6,-30) scale(1,1)"><path fill="none" stroke="#000000" d="M 41.32072727272727 577.6800000000001 C 41.32072727272727 572.8861679360001 45.206569597672726 569 50 569 C 54.793430402327274 569 58.67927272727273 572.8861679360001 58.67927272727273 577.6800000000001 C 58.67927272727273 582.473832064 54.793430402327274 586.36 50 586.36 C 45.206569597672726 586.36 41.32072727272727 582.473832064 41.32072727272727 577.6800000000001 Z" stroke-miterlimit="10"></path></g><g transform="translate(-6,-30) scale(1,1)"><path fill="none" stroke="#000000" d="M 50 586.36 L 50 603.64" stroke-miterlimit="10"></path></g><g transform="translate(-6,-30) scale(1,1)"><path fill="none" stroke="#000000" d="M 40.81018181818182 592.84 L 59.18981818181818 592.84" stroke-miterlimit="10"></path></g><g transform="translate(-6,-30) scale(1,1)"><path fill="none" stroke="#000000" d="M 50 603.64 L 37.236363636363635 621" stroke-miterlimit="10"></path></g><g transform="translate(-6,-30) scale(1,1)"><path fill="none" stroke="#000000" d="M 50 603.64 L 62.763636363636365 621" stroke-miterlimit="10"></path></g><g transform="translate(-6,-30) scale(1,1)"><g><path fill="none" stroke="none"></path><text fill="#000000" stroke="none" font-family="Arial" font-size="13px" font-style="normal" font-weight="bold" text-decoration="none" x="22.5" y="641.5">Professor</text></g></g><g transform="translate(-6,-30) scale(1,1)"><path fill="#C0C0C0" stroke="none" d="M 143 624 C 143 614.6111584 194.487248 607 258 607 C 321.512752 607 373 614.6111584 373 624 C 373 633.3888416 321.512752 641 258 641 C 194.487248 641 143 633.3888416 143 624 Z" opacity="0.2"></path></g><g transform="translate(-6,-30) scale(1,1)"><path fill="#ffffff" stroke="none" d="M 136 617 C 136 607.6111584 187.487248 600 251 600 C 314.512752 600 366 607.6111584 366 617 C 366 626.3888416 314.512752 634 251 634 C 187.487248 634 136 626.3888416 136 617 Z"></path></g><g transform="translate(-6,-30) scale(1,1)"><path fill="none" stroke="#000000" d="M 136 617 C 136 607.6111584 187.487248 600 251 600 C 314.512752 600 366 607.6111584 366 617 C 366 626.3888416 314.512752 634 251 634 C 187.487248 634 136 626.3888416 136 617 Z" stroke-miterlimit="10"></path></g><g transform="translate(-6,-30) scale(1,1)"><g><path fill="none" stroke="none"></path><text fill="#000000" stroke="none" font-family="Arial" font-size="13px" font-style="normal" font-weight="bold" text-decoration="none" x="189.5" y="624">Visualizar Pontuação</text></g></g><g transform="translate(-6,-30) scale(1,1)"><path fill="none" stroke="#000000" d="M 84 618 L 136 618" stroke-miterlimit="10"></path></g><g transform="translate(-6,-30) scale(1,1)"><path fill="none" stroke="#000000" d="M 125.83732514237585 622.209517756016 L 136 618 L 125.83732514237585 613.790482243984" stroke-miterlimit="10"></path></g><g transform="translate(-6,-30) scale(1,1)"><path fill="none" stroke="#000000" d="M 73 492 L 112 492" stroke-miterlimit="10"></path></g><g transform="translate(-6,-30) scale(1,1)"><path fill="none" stroke="#000000" d="M 101.83732514237585 496.209517756016 L 112 492 L 101.83732514237585 487.790482243984" stroke-miterlimit="10"></path></g><g transform="translate(-6,-30) scale(1,1)"><path fill="#C0C0C0" stroke="none" d="M 167 64 C 167 54.6111584 222.29282719999998 47 290.5 47 C 358.7071728 47 414 54.6111584 414 64 C 414 73.3888416 358.7071728 81 290.5 81 C 222.29282719999998 81 167 73.3888416 167 64 Z" opacity="0.2"></path></g><g transform="translate(-6,-30) scale(1,1)"><path fill="#ffffff" stroke="none" d="M 160 57 C 160 47.6111584 215.29282719999998 40 283.5 40 C 351.7071728 40 407 47.6111584 407 57 C 407 66.3888416 351.7071728 74 283.5 74 C 215.29282719999998 74 160 66.3888416 160 57 Z"></path></g><g transform="translate(-6,-30) scale(1,1)"><path fill="none" stroke="#000000" d="M 160 57 C 160 47.6111584 215.29282719999998 40 283.5 40 C 351.7071728 40 407 47.6111584 407 57 C 407 66.3888416 351.7071728 74 283.5 74 C 215.29282719999998 74 160 66.3888416 160 57 Z" stroke-miterlimit="10"></path></g><g transform="translate(-6,-30) scale(1,1)"><g><path fill="none" stroke="none"></path><text fill="#000000" stroke="none" font-family="Arial" font-size="13px" font-style="normal" font-weight="bold" text-decoration="none" x="206.5" y="64">Cadastrar dados Professor</text></g></g><g transform="translate(-6,-30) scale(1,1)"><path fill="#C0C0C0" stroke="none" d="M 215 200 C 215 190.6111584 262.6816688 183 321.5 183 C 380.3183312 183 428 190.6111584 428 200 C 428 209.3888416 380.3183312 217 321.5 217 C 262.6816688 217 215 209.3888416 215 200 Z" opacity="0.2"></path></g><g transform="translate(-6,-30) scale(1,1)"><path fill="#ffffff" stroke="none" d="M 208 193 C 208 183.6111584 255.6816688 176 314.5 176 C 373.3183312 176 421 183.6111584 421 193 C 421 202.3888416 373.3183312 210 314.5 210 C 255.6816688 210 208 202.3888416 208 193 Z"></path></g><g transform="translate(-6,-30) scale(1,1)"><path fill="none" stroke="#000000" d="M 208 193 C 208 183.6111584 255.6816688 176 314.5 176 C 373.3183312 176 421 183.6111584 421 193 C 421 202.3888416 373.3183312 210 314.5 210 C 255.6816688 210 208 202.3888416 208 193 Z" stroke-miterlimit="10"></path></g><g transform="translate(-6,-30) scale(1,1)"><g><path fill="none" stroke="none"></path><text fill="#000000" stroke="none" font-family="Arial" font-size="13px" font-style="normal" font-weight="bold" text-decoration="none" x="248.5" y="200">Editar dados Professor</text></g></g><g transform="translate(-6,-30) scale(1,1)"><path fill="#C0C0C0" stroke="none" d="M 215 96 C 215 86.6111584 269.1735392 79 336 79 C 402.8264608 79 457 86.6111584 457 96 C 457 105.3888416 402.8264608 113 336 113 C 269.1735392 113 215 105.3888416 215 96 Z" opacity="0.2"></path></g><g transform="translate(-6,-30) scale(1,1)"><path fill="#ffffff" stroke="none" d="M 208 89 C 208 79.6111584 262.1735392 72 329 72 C 395.8264608 72 450 79.6111584 450 89 C 450 98.3888416 395.8264608 106 329 106 C 262.1735392 106 208 98.3888416 208 89 Z"></path></g><g transform="translate(-6,-30) scale(1,1)"><path fill="none" stroke="#000000" d="M 208 89 C 208 79.6111584 262.1735392 72 329 72 C 395.8264608 72 450 79.6111584 450 89 C 450 98.3888416 395.8264608 106 329 106 C 262.1735392 106 208 98.3888416 208 89 Z" stroke-miterlimit="10"></path></g><g transform="translate(-6,-30) scale(1,1)"><g><path fill="none" stroke="none"></path><text fill="#000000" stroke="none" font-family="Arial" font-size="13px" font-style="normal" font-weight="bold" text-decoration="none" x="255" y="96">Remover dados Professor</text></g></g><g transform="translate(-6,-30) scale(1,1)"><path fill="#C0C0C0" stroke="none" d="M 191 136 C 191 126.6111584 226.1456432 119 269.5 119 C 312.8543568 119 348 126.6111584 348 136 C 348 145.3888416 312.8543568 153 269.5 153 C 226.1456432 153 191 145.3888416 191 136 Z" opacity="0.2"></path></g><g transform="translate(-6,-30) scale(1,1)"><path fill="#ffffff" stroke="none" d="M 184 129 C 184 119.6111584 219.1456432 112 262.5 112 C 305.8543568 112 341 119.6111584 341 129 C 341 138.3888416 305.8543568 146 262.5 146 C 219.1456432 146 184 138.3888416 184 129 Z"></path></g><g transform="translate(-6,-30) scale(1,1)"><path fill="none" stroke="#000000" d="M 184 129 C 184 119.6111584 219.1456432 112 262.5 112 C 305.8543568 112 341 119.6111584 341 129 C 341 138.3888416 305.8543568 146 262.5 146 C 219.1456432 146 184 138.3888416 184 129 Z" stroke-miterlimit="10"></path></g><g transform="translate(-6,-30) scale(1,1)"><g><path fill="none" stroke="none"></path><text fill="#000000" stroke="none" font-family="Arial" font-size="13px" font-style="normal" font-weight="bold" text-decoration="none" x="216" y="136">Cadastrar Aluno</text></g></g><g transform="translate(-6,-30) scale(1,1)"><path fill="#C0C0C0" stroke="none" d="M 175 168 C 175 158.6111584 202.5344848 151 236.5 151 C 270.4655152 151 298 158.6111584 298 168 C 298 177.3888416 270.4655152 185 236.5 185 C 202.5344848 185 175 177.3888416 175 168 Z" opacity="0.2"></path></g><g transform="translate(-6,-30) scale(1,1)"><path fill="#ffffff" stroke="none" d="M 168 161 C 168 151.6111584 195.5344848 144 229.5 144 C 263.4655152 144 291 151.6111584 291 161 C 291 170.3888416 263.4655152 178 229.5 178 C 195.5344848 178 168 170.3888416 168 161 Z"></path></g><g transform="translate(-6,-30) scale(1,1)"><path fill="none" stroke="#000000" d="M 168 161 C 168 151.6111584 195.5344848 144 229.5 144 C 263.4655152 144 291 151.6111584 291 161 C 291 170.3888416 263.4655152 178 229.5 178 C 195.5344848 178 168 170.3888416 168 161 Z" stroke-miterlimit="10"></path></g><g transform="translate(-6,-30) scale(1,1)"><g><path fill="none" stroke="none"></path><text fill="#000000" stroke="none" font-family="Arial" font-size="13px" font-style="normal" font-weight="bold" text-decoration="none" x="194" y="168">Editar Aluno</text></g></g><g transform="translate(-6,-30) scale(1,1)"><path fill="#C0C0C0" stroke="none" d="M 239 240 C 239 230.6111584 274.1456432 223 317.5 223 C 360.8543568 223 396 230.6111584 396 240 C 396 249.3888416 360.8543568 257 317.5 257 C 274.1456432 257 239 249.3888416 239 240 Z" opacity="0.2"></path></g><g transform="translate(-6,-30) scale(1,1)"><path fill="#ffffff" stroke="none" d="M 232 233 C 232 223.6111584 267.1456432 216 310.5 216 C 353.8543568 216 389 223.6111584 389 233 C 389 242.3888416 353.8543568 250 310.5 250 C 267.1456432 250 232 242.3888416 232 233 Z"></path></g><g transform="translate(-6,-30) scale(1,1)"><path fill="none" stroke="#000000" d="M 232 233 C 232 223.6111584 267.1456432 216 310.5 216 C 353.8543568 216 389 223.6111584 389 233 C 389 242.3888416 353.8543568 250 310.5 250 C 267.1456432 250 232 242.3888416 232 233 Z" stroke-miterlimit="10"></path></g><g transform="translate(-6,-30) scale(1,1)"><g><path fill="none" stroke="none"></path><text fill="#000000" stroke="none" font-family="Arial" font-size="13px" font-style="normal" font-weight="bold" text-decoration="none" x="265" y="240">Remover  Aluno</text></g></g><g transform="translate(-6,-30) scale(1,1)"><path fill="#C0C0C0" stroke="none" d="M 175 280 C 175 270.6111584 217.9806592 263 271 263 C 324.0193408 263 367 270.6111584 367 280 C 367 289.3888416 324.0193408 297 271 297 C 217.9806592 297 175 289.3888416 175 280 Z" opacity="0.2"></path></g><g transform="translate(-6,-30) scale(1,1)"><path fill="#ffffff" stroke="none" d="M 168 273 C 168 263.6111584 210.9806592 256 264 256 C 317.0193408 256 360 263.6111584 360 273 C 360 282.3888416 317.0193408 290 264 290 C 210.9806592 290 168 282.3888416 168 273 Z"></path></g><g transform="translate(-6,-30) scale(1,1)"><path fill="none" stroke="#000000" d="M 168 273 C 168 263.6111584 210.9806592 256 264 256 C 317.0193408 256 360 263.6111584 360 273 C 360 282.3888416 317.0193408 290 264 290 C 210.9806592 290 168 282.3888416 168 273 Z" stroke-miterlimit="10"></path></g><g transform="translate(-6,-30) scale(1,1)"><g><path fill="none" stroke="none"></path><text fill="#000000" stroke="none" font-family="Arial" font-size="13px" font-style="normal" font-weight="bold" text-decoration="none" x="207" y="280">Adicionar Disciplina</text></g></g><g transform="translate(-6,-30) scale(1,1)"><path fill="#C0C0C0" stroke="none" d="M 103 400 C 103 390.6111584 144.8613712 383 196.5 383 C 248.1386288 383 290 390.6111584 290 400 C 290 409.3888416 248.1386288 417 196.5 417 C 144.8613712 417 103 409.3888416 103 400 Z" opacity="0.2"></path></g><g transform="translate(-6,-30) scale(1,1)"><path fill="#ffffff" stroke="none" d="M 96 393 C 96 383.6111584 137.8613712 376 189.5 376 C 241.1386288 376 283 383.6111584 283 393 C 283 402.3888416 241.1386288 410 189.5 410 C 137.8613712 410 96 402.3888416 96 393 Z"></path></g><g transform="translate(-6,-30) scale(1,1)"><path fill="none" stroke="#000000" d="M 96 393 C 96 383.6111584 137.8613712 376 189.5 376 C 241.1386288 376 283 383.6111584 283 393 C 283 402.3888416 241.1386288 410 189.5 410 C 137.8613712 410 96 402.3888416 96 393 Z" stroke-miterlimit="10"></path></g><g transform="translate(-6,-30) scale(1,1)"><g><path fill="none" stroke="none"></path><text fill="#000000" stroke="none" font-family="Arial" font-size="13px" font-style="normal" font-weight="bold" text-decoration="none" x="134.5" y="400">Remover Disciplina</text></g></g><g transform="translate(-6,-30) scale(1,1)"><path fill="#C0C0C0" stroke="none" d="M 151 328 C 151 318.6111584 186.1456432 311 229.5 311 C 272.8543568 311 308 318.6111584 308 328 C 308 337.3888416 272.8543568 345 229.5 345 C 186.1456432 345 151 337.3888416 151 328 Z" opacity="0.2"></path></g><g transform="translate(-6,-30) scale(1,1)"><path fill="#ffffff" stroke="none" d="M 144 321 C 144 311.6111584 179.1456432 304 222.5 304 C 265.8543568 304 301 311.6111584 301 321 C 301 330.3888416 265.8543568 338 222.5 338 C 179.1456432 338 144 330.3888416 144 321 Z"></path></g><g transform="translate(-6,-30) scale(1,1)"><path fill="none" stroke="#000000" d="M 144 321 C 144 311.6111584 179.1456432 304 222.5 304 C 265.8543568 304 301 311.6111584 301 321 C 301 330.3888416 265.8543568 338 222.5 338 C 179.1456432 338 144 330.3888416 144 321 Z" stroke-miterlimit="10"></path></g><g transform="translate(-6,-30) scale(1,1)"><g><path fill="none" stroke="none"></path><text fill="#000000" stroke="none" font-family="Arial" font-size="13px" font-style="normal" font-weight="bold" text-decoration="none" x="176.5" y="328">Editar disciplina</text></g></g><g transform="translate(-6,-30) scale(1,1)"><path fill="none" stroke="#000000" d="M 41 104 L 41 92 L 96 92 L 96 40 L 160 40" stroke-miterlimit="10"></path></g><g transform="translate(-6,-30) scale(1,1)"><path fill="none" stroke="#000000" d="M 149.83732514237585 44.20951775601599 L 160 40 L 149.83732514237585 35.790482243984016" stroke-miterlimit="10"></path></g><g transform="translate(-6,-30) scale(1,1)"><path fill="none" stroke="#000000" d="M 41 104 L 41 92 L 96 92 L 96 89 L 208 89" stroke-miterlimit="10"></path></g><g transform="translate(-6,-30) scale(1,1)"><path fill="none" stroke="#000000" d="M 197.83732514237585 93.20951775601598 L 208 89 L 197.83732514237585 84.79048224398402" stroke-miterlimit="10"></path></g><g transform="translate(-6,-30) scale(1,1)"><path fill="none" stroke="#000000" d="M 41 104 L 41 92 L 96 92 L 96 128 L 184 128" stroke-miterlimit="10"></path></g><g transform="translate(-6,-30) scale(1,1)"><path fill="none" stroke="#000000" d="M 173.83732514237585 132.209517756016 L 184 128 L 173.83732514237585 123.79048224398402" stroke-miterlimit="10"></path></g><g transform="translate(-6,-30) scale(1,1)"><path fill="none" stroke="#000000" d="M 41 104 L 41 92 L 96 92 L 96 168 L 168 168" stroke-miterlimit="10"></path></g><g transform="translate(-6,-30) scale(1,1)"><path fill="none" stroke="#000000" d="M 157.83732514237585 172.209517756016 L 168 168 L 157.83732514237585 163.790482243984" stroke-miterlimit="10"></path></g><g transform="translate(-6,-30) scale(1,1)"><path fill="none" stroke="#000000" d="M 41 104 L 41 92 L 96 92 L 96 233 L 232 233" stroke-miterlimit="10"></path></g><g transform="translate(-6,-30) scale(1,1)"><path fill="none" stroke="#000000" d="M 221.83732514237585 237.209517756016 L 232 233 L 221.83732514237585 228.790482243984" stroke-miterlimit="10"></path></g><g transform="translate(-6,-30) scale(1,1)"><path fill="none" stroke="#000000" d="M 41 104 L 41 92 L 96 92 L 96 273 L 168 273" stroke-miterlimit="10"></path></g><g transform="translate(-6,-30) scale(1,1)"><path fill="none" stroke="#000000" d="M 157.83732514237585 277.209517756016 L 168 273 L 157.83732514237585 268.790482243984" stroke-miterlimit="10"></path></g><g transform="translate(-6,-30) scale(1,1)"><path fill="none" stroke="#000000" d="M 41 104 L 41 92 L 96 92 L 96 320 L 144 320" stroke-miterlimit="10"></path></g><g transform="translate(-6,-30) scale(1,1)"><path fill="none" stroke="#000000" d="M 133.83732514237585 324.209517756016 L 144 320 L 133.83732514237585 315.790482243984" stroke-miterlimit="10"></path></g><g transform="translate(-6,-30) scale(1,1)"><path fill="none" stroke="#000000" d="M 41 104 L 41 92 L 40 92 L 40 392 L 96 392" stroke-miterlimit="10"></path></g><g transform="translate(-6,-30) scale(1,1)"><path fill="none" stroke="#000000" d="M 85.83732514237585 396.209517756016 L 96 392 L 85.83732514237585 387.790482243984" stroke-miterlimit="10"></path></g><g transform="translate(-6,-30) scale(1,1)"><path fill="#C0C0C0" stroke="none" d="M 607 491.5 C 607 471.3416048 646.3989376 455 695 455 C 743.6010624 455 783 471.3416048 783 491.5 C 783 511.6583952 743.6010624 528 695 528 C 646.3989376 528 607 511.6583952 607 491.5 Z" opacity="0.2"></path></g><g transform="translate(-6,-30) scale(1,1)"><path fill="#ffffff" stroke="none" d="M 600 484.5 C 600 464.3416048 639.3989376 448 688 448 C 736.6010624 448 776 464.3416048 776 484.5 C 776 504.6583952 736.6010624 521 688 521 C 639.3989376 521 600 504.6583952 600 484.5 Z"></path></g><g transform="translate(-6,-30) scale(1,1)"><path fill="none" stroke="#000000" d="M 600 484.5 C 600 464.3416048 639.3989376 448 688 448 C 736.6010624 448 776 464.3416048 776 484.5 C 776 504.6583952 736.6010624 521 688 521 C 639.3989376 521 600 504.6583952 600 484.5 Z" stroke-miterlimit="10"></path></g><g transform="translate(-6,-30) scale(1,1)"><g><path fill="none" stroke="none"></path><text fill="#000000" stroke="none" font-family="Arial" font-size="13px" font-style="normal" font-weight="normal" text-decoration="none" x="664.5" y="483">«Aluno»</text></g></g><g transform="translate(-6,-30) scale(1,1)"><g><path fill="none" stroke="none"></path><text fill="#000000" stroke="none" font-family="Arial" font-size="13px" font-style="normal" font-weight="bold" text-decoration="none" x="638" y="498">Logar no sistema</text></g></g><g transform="translate(-6,-30) scale(1,1)"><path fill="#C0C0C0" stroke="none" d="M 415 633 C 415 618.6405952 461.11466559999997 607 518 607 C 574.8853344 607 621 618.6405952 621 633 C 621 647.3594048 574.8853344 659 518 659 C 461.11466559999997 659 415 647.3594048 415 633 Z" opacity="0.2"></path></g><g transform="translate(-6,-30) scale(1,1)"><path fill="#ffffff" stroke="none" d="M 408 626 C 408 611.6405952 454.11466559999997 600 511 600 C 567.8853344 600 614 611.6405952 614 626 C 614 640.3594048 567.8853344 652 511 652 C 454.11466559999997 652 408 640.3594048 408 626 Z"></path></g><g transform="translate(-6,-30) scale(1,1)"><path fill="none" stroke="#000000" d="M 408 626 C 408 611.6405952 454.11466559999997 600 511 600 C 567.8853344 600 614 611.6405952 614 626 C 614 640.3594048 567.8853344 652 511 652 C 454.11466559999997 652 408 640.3594048 408 626 Z" stroke-miterlimit="10"></path></g><g transform="translate(-6,-30) scale(1,1)"><g><path fill="none" stroke="none"></path><text fill="#000000" stroke="none" font-family="Arial" font-size="13px" font-style="normal" font-weight="normal" text-decoration="none" x="476.5" y="624.5">«Professor»</text></g></g><g transform="translate(-6,-30) scale(1,1)"><g><path fill="none" stroke="none"></path><text fill="#000000" stroke="none" font-family="Arial" font-size="13px" font-style="normal" font-weight="bold" text-decoration="none" x="461" y="639.5">Logar no sistema</text></g></g><g transform="translate(-6,-30) scale(1,1)"><path fill="none" stroke="#000000" d="M 501 480 L 600 480" stroke-miterlimit="10" stroke-dasharray="3"></path></g><g transform="translate(-6,-30) scale(1,1)"><path fill="none" stroke="#000000" d="M 589.8373251423759 484.209517756016 L 600 480 L 589.8373251423758 475.790482243984" stroke-miterlimit="10"></path></g><g transform="translate(-6,-30) scale(1,1)"><g><path fill="none" stroke="none"></path><text fill="#000000" stroke="none" font-family="Arial" font-size="13px" font-style="normal" font-weight="normal" text-decoration="none" x="495.5" y="475.5">«include»</text></g></g><g transform="translate(-6,-30) scale(1,1)"><path fill="#C0C0C0" stroke="none" d="M 559 105 C 559 90.6405952 614.9644 79 684 79 C 753.0356 79 809 90.6405952 809 105 C 809 119.3594048 753.0356 131 684 131 C 614.9644 131 559 119.3594048 559 105 Z" opacity="0.2"></path></g><g transform="translate(-6,-30) scale(1,1)"><path fill="#ffffff" stroke="none" d="M 552 98 C 552 83.6405952 607.9644 72 677 72 C 746.0356 72 802 83.6405952 802 98 C 802 112.3594048 746.0356 124 677 124 C 607.9644 124 552 112.3594048 552 98 Z"></path></g><g transform="translate(-6,-30) scale(1,1)"><path fill="none" stroke="#000000" d="M 552 98 C 552 83.6405952 607.9644 72 677 72 C 746.0356 72 802 83.6405952 802 98 C 802 112.3594048 746.0356 124 677 124 C 607.9644 124 552 112.3594048 552 98 Z" stroke-miterlimit="10"></path></g><g transform="translate(-6,-30) scale(1,1)"><g><path fill="none" stroke="none"></path><text fill="#000000" stroke="none" font-family="Arial" font-size="13px" font-style="normal" font-weight="normal" text-decoration="none" x="651.5" y="96.5">«Admin»</text></g></g><g transform="translate(-6,-30) scale(1,1)"><g><path fill="none" stroke="none"></path><text fill="#000000" stroke="none" font-family="Arial" font-size="13px" font-style="normal" font-weight="bold" text-decoration="none" x="627" y="111.5">Logar no sistema</text></g></g><g transform="translate(-6,-30) scale(1,1)"><path fill="none" stroke="#000000" d="M 407 56 L 428 56 L 428 64 L 616 64 L 616 72" stroke-miterlimit="10" stroke-dasharray="3"></path></g><g transform="translate(-6,-30) scale(1,1)"><path fill="none" stroke="#000000" d="M 611.790482243984 61.837325142375846 L 616 72 L 620.209517756016 61.837325142375846" stroke-miterlimit="10"></path></g><g transform="translate(-6,-30) scale(1,1)"><g><path fill="none" stroke="none"></path><text fill="#000000" stroke="none" font-family="Arial" font-size="13px" font-style="normal" font-weight="normal" text-decoration="none" x="447.5" y="60.5">«include»</text></g></g><g transform="translate(-6,-30) scale(1,1)"><path fill="none" stroke="#000000" d="M 341 144 L 600 144 L 600 124" stroke-miterlimit="10" stroke-dasharray="3"></path></g><g transform="translate(-6,-30) scale(1,1)"><path fill="none" stroke="#000000" d="M 604.209517756016 134.16267485762415 L 600 124 L 595.790482243984 134.16267485762415" stroke-miterlimit="10"></path></g><g transform="translate(-6,-30) scale(1,1)"><g><path fill="none" stroke="none"></path><text fill="#000000" stroke="none" font-family="Arial" font-size="13px" font-style="normal" font-weight="normal" text-decoration="none" x="542.5" y="149.5">«include»</text></g></g><g transform="translate(-6,-30) scale(1,1)"><path fill="none" stroke="#000000" d="M 291 161 L 576 161 L 576 124" stroke-miterlimit="10" stroke-dasharray="3"></path></g><g transform="translate(-6,-30) scale(1,1)"><path fill="none" stroke="#000000" d="M 580.209517756016 134.16267485762415 L 576 124 L 571.790482243984 134.16267485762415" stroke-miterlimit="10"></path></g><g transform="translate(-6,-30) scale(1,1)"><g><path fill="none" stroke="none"></path><text fill="#000000" stroke="none" font-family="Arial" font-size="13px" font-style="normal" font-weight="normal" text-decoration="none" x="518.5" y="166.5">«include»</text></g></g><g transform="translate(-6,-30) scale(1,1)"><path fill="none" stroke="#000000" d="M 41 104 L 41 84 L 96 84 L 96 193 L 208 193" stroke-miterlimit="10"></path></g><g transform="translate(-6,-30) scale(1,1)"><path fill="none" stroke="#000000" d="M 389 232 L 616 232 L 616 124" stroke-miterlimit="10" stroke-dasharray="3"></path></g><g transform="translate(-6,-30) scale(1,1)"><path fill="none" stroke="#000000" d="M 620.209517756016 134.16267485762415 L 616 124 L 611.790482243984 134.16267485762415" stroke-miterlimit="10"></path></g><g transform="translate(-6,-30) scale(1,1)"><g><path fill="none" stroke="none"></path><text fill="#000000" stroke="none" font-family="Arial" font-size="13px" font-style="normal" font-weight="normal" text-decoration="none" x="558.5" y="237.5">«include»</text></g></g><g transform="translate(-6,-30) scale(1,1)"><path fill="none" stroke="#000000" d="M 360 272 L 624 272 L 624 124" stroke-miterlimit="10" stroke-dasharray="3"></path></g><g transform="translate(-6,-30) scale(1,1)"><path fill="none" stroke="#000000" d="M 628.209517756016 134.16267485762415 L 624 124 L 619.790482243984 134.16267485762415" stroke-miterlimit="10"></path></g><g transform="translate(-6,-30) scale(1,1)"><g><path fill="none" stroke="none"></path><text fill="#000000" stroke="none" font-family="Arial" font-size="13px" font-style="normal" font-weight="normal" text-decoration="none" x="566.5" y="277.5">«include»</text></g></g><g transform="translate(-6,-30) scale(1,1)"><path fill="none" stroke="#000000" d="M 283 376 L 664 376 L 664 124" stroke-miterlimit="10" stroke-dasharray="3"></path></g><g transform="translate(-6,-30) scale(1,1)"><path fill="none" stroke="#000000" d="M 668.209517756016 134.16267485762415 L 664 124 L 659.790482243984 134.16267485762415" stroke-miterlimit="10"></path></g><g transform="translate(-6,-30) scale(1,1)"><g><path fill="none" stroke="none"></path><text fill="#000000" stroke="none" font-family="Arial" font-size="13px" font-style="normal" font-weight="normal" text-decoration="none" x="606.5" y="381.5">«include»</text></g></g><g transform="translate(-6,-30) scale(1,1)"><path fill="none" stroke="#000000" d="M 251 600 L 251 580 L 396 580 L 396 576 L 456 576 L 456 600" stroke-miterlimit="10" stroke-dasharray="3"></path></g><g transform="translate(-6,-30) scale(1,1)"><path fill="none" stroke="#000000" d="M 451.790482243984 589.8373251423759 L 456 600 L 460.209517756016 589.8373251423759" stroke-miterlimit="10"></path></g><g transform="translate(-6,-30) scale(1,1)"><g><path fill="none" stroke="none"></path><text fill="#000000" stroke="none" font-family="Arial" font-size="13px" font-style="normal" font-weight="normal" text-decoration="none" x="318.5" y="580.5">«include»</text></g></g><g transform="translate(-6,-30) scale(1,1)"><path fill="none" stroke="#000000" d="M 450 88 L 480 88 L 480 96 L 552 96" stroke-miterlimit="10" stroke-dasharray="3"></path></g><g transform="translate(-6,-30) scale(1,1)"><path fill="none" stroke="#000000" d="M 541.8373251423759 100.20951775601598 L 552 96 L 541.8373251423758 91.79048224398402" stroke-miterlimit="10"></path></g><g transform="translate(-6,-30) scale(1,1)"><g><path fill="none" stroke="none"></path><text fill="#000000" stroke="none" font-family="Arial" font-size="13px" font-style="normal" font-weight="normal" text-decoration="none" x="481.5" y="92.5">«include»</text></g></g><g transform="translate(-6,-30) scale(1,1)"><path fill="none" stroke="#000000" d="M 421 193 L 704 193 L 704 124" stroke-miterlimit="10" stroke-dasharray="3"></path></g><g transform="translate(-6,-30) scale(1,1)"><path fill="none" stroke="#000000" d="M 708.209517756016 134.16267485762415 L 704 124 L 699.790482243984 134.16267485762415" stroke-miterlimit="10"></path></g><g transform="translate(-6,-30) scale(1,1)"><g><path fill="none" stroke="none"></path><text fill="#000000" stroke="none" font-family="Arial" font-size="13px" font-style="normal" font-weight="normal" text-decoration="none" x="646.5" y="198.5">«include»</text></g></g><g transform="translate(-6,-30) scale(1,1)"><path fill="none" stroke="#000000" d="M 222 304 L 222 296 L 330 296 L 330 304 L 677 304 L 677 124" stroke-miterlimit="10" stroke-dasharray="3"></path></g><g transform="translate(-6,-30) scale(1,1)"><path fill="none" stroke="#000000" d="M 681.209517756016 134.16267485762415 L 677 124 L 672.790482243984 134.16267485762415" stroke-miterlimit="10"></path></g><g transform="translate(-6,-30) scale(1,1)"><g><path fill="none" stroke="none"></path><text fill="#000000" stroke="none" font-family="Arial" font-size="13px" font-style="normal" font-weight="normal" text-decoration="none" x="331.5" y="305.5">«include»</text></g></g></g></svg>