<svg version="1.1" xmlns="http://www.w3.org/2000/svg" xmlns:xlink="http://www.w3.org/1999/xlink" width="741" height="589"><defs></defs><g><g transform="translate(-38,-22) scale(1,1)"><rect fill="#C0C0C0" stroke="none" x="79" y="111" width="245" height="160" opacity="0.2"></rect></g><g transform="translate(-38,-22) scale(1,1)"><rect fill="#ffffff" stroke="none" x="72" y="104" width="245" height="160"></rect></g><g transform="translate(-38,-22) scale(1,1)"><path fill="none" stroke="#000000" d="M 72 104 L 317 104 L 317 264 L 72 264 L 72 104 Z Z" stroke-miterlimit="10"></path></g><g transform="translate(-38,-22) scale(1,1)"><path fill="none" stroke="#000000" d="M 72 129 L 317 129" stroke-miterlimit="10"></path></g><g transform="translate(-38,-22) scale(1,1)"><path fill="none" stroke="#000000" d="M 72 227 L 317 227" stroke-miterlimit="10"></path></g><g transform="translate(-38,-22) scale(1,1)"><g><path fill="none" stroke="none"></path><text fill="#000000" stroke="none" font-family="Arial" font-size="13px" font-style="normal" font-weight="bold" text-decoration="none" x="178" y="123.5">Aluno</text></g></g><g transform="translate(-38,-22) scale(1,1)"><g><path fill="none" stroke="none"></path><text fill="#000000" stroke="none" font-family="Arial" font-size="13px" font-style="normal" font-weight="normal" text-decoration="none" x="77" y="146.5">+Nome: String</text></g></g><g transform="translate(-38,-22) scale(1,1)"><g><path fill="none" stroke="none"></path><text fill="#000000" stroke="none" font-family="Arial" font-size="13px" font-style="normal" font-weight="normal" text-decoration="none" x="77" y="161.5">+Telefone: number</text></g></g><g transform="translate(-38,-22) scale(1,1)"><g><path fill="none" stroke="none"></path><text fill="#000000" stroke="none" font-family="Arial" font-size="13px" font-style="normal" font-weight="normal" text-decoration="none" x="77" y="176.5">+Turma: String</text></g></g><g transform="translate(-38,-22) scale(1,1)"><g><path fill="none" stroke="none"></path><text fill="#000000" stroke="none" font-family="Arial" font-size="13px" font-style="normal" font-weight="normal" text-decoration="none" x="77" y="191.5">+Curso: String</text></g></g><g transform="translate(-38,-22) scale(1,1)"><g><path fill="none" stroke="none"></path><text fill="#000000" stroke="none" font-family="Arial" font-size="13px" font-style="normal" font-weight="normal" text-decoration="none" x="77" y="206.5">+Email: String</text></g></g><g transform="translate(-38,-22) scale(1,1)"><g><path fill="none" stroke="none"></path><text fill="#000000" stroke="none" font-family="Arial" font-size="13px" font-style="normal" font-weight="normal" text-decoration="none" x="77" y="221.5">+Senha: varchar</text></g></g><g transform="translate(-38,-22) scale(1,1)"><g><path fill="none" stroke="none"></path><text fill="#000000" stroke="none" font-family="Arial" font-size="13px" font-style="normal" font-weight="normal" text-decoration="none" x="77" y="244.5">+Visualizar conteúdo e fazer exercicios()</text></g></g><g transform="translate(-38,-22) scale(1,1)"><g><path fill="none" stroke="none"></path><text fill="#000000" stroke="none" font-family="Arial" font-size="13px" font-style="normal" font-weight="normal" text-decoration="none" x="77" y="259.5">+Logar()</text></g></g><g transform="translate(-38,-22) scale(1,1)"><rect fill="#C0C0C0" stroke="none" x="55" y="463" width="160" height="145" opacity="0.2"></rect></g><g transform="translate(-38,-22) scale(1,1)"><rect fill="#ffffff" stroke="none" x="48" y="456" width="160" height="145"></rect></g><g transform="translate(-38,-22) scale(1,1)"><path fill="none" stroke="#000000" d="M 48 456 L 208 456 L 208 601 L 48 601 L 48 456 Z Z" stroke-miterlimit="10"></path></g><g transform="translate(-38,-22) scale(1,1)"><path fill="none" stroke="#000000" d="M 48 481 L 208 481" stroke-miterlimit="10"></path></g><g transform="translate(-38,-22) scale(1,1)"><path fill="none" stroke="#000000" d="M 48 564 L 208 564" stroke-miterlimit="10"></path></g><g transform="translate(-38,-22) scale(1,1)"><g><path fill="none" stroke="none"></path><text fill="#000000" stroke="none" font-family="Arial" font-size="13px" font-style="normal" font-weight="bold" text-decoration="none" x="100.5" y="475.5">Professor</text></g></g><g transform="translate(-38,-22) scale(1,1)"><g><path fill="none" stroke="none"></path><text fill="#000000" stroke="none" font-family="Arial" font-size="13px" font-style="normal" font-weight="normal" text-decoration="none" x="53" y="498.5">+Nome: String</text></g></g><g transform="translate(-38,-22) scale(1,1)"><g><path fill="none" stroke="none"></path><text fill="#000000" stroke="none" font-family="Arial" font-size="13px" font-style="normal" font-weight="normal" text-decoration="none" x="53" y="513.5">+Telefone: number</text></g></g><g transform="translate(-38,-22) scale(1,1)"><g><path fill="none" stroke="none"></path><text fill="#000000" stroke="none" font-family="Arial" font-size="13px" font-style="normal" font-weight="normal" text-decoration="none" x="53" y="528.5">+Email: String</text></g></g><g transform="translate(-38,-22) scale(1,1)"><g><path fill="none" stroke="none"></path><text fill="#000000" stroke="none" font-family="Arial" font-size="13px" font-style="normal" font-weight="normal" text-decoration="none" x="53" y="543.5">+Nome_Materia: String</text></g></g><g transform="translate(-38,-22) scale(1,1)"><g><path fill="none" stroke="none"></path><text fill="#000000" stroke="none" font-family="Arial" font-size="13px" font-style="normal" font-weight="normal" text-decoration="none" x="53" y="558.5">+Senha: varchar</text></g></g><g transform="translate(-38,-22) scale(1,1)"><g><path fill="none" stroke="none"></path><text fill="#000000" stroke="none" font-family="Arial" font-size="13px" font-style="normal" font-weight="normal" text-decoration="none" x="53" y="581.5">+Visualizar pontuação()</text></g></g><g transform="translate(-38,-22) scale(1,1)"><g><path fill="none" stroke="none"></path><text fill="#000000" stroke="none" font-family="Arial" font-size="13px" font-style="normal" font-weight="normal" text-decoration="none" x="53" y="596.5">+Logar()</text></g></g><g transform="translate(-38,-22) scale(1,1)"><rect fill="#C0C0C0" stroke="none" x="383" y="351" width="160" height="104" opacity="0.2"></rect></g><g transform="translate(-38,-22) scale(1,1)"><rect fill="#ffffff" stroke="none" x="376" y="344" width="160" height="104"></rect></g><g transform="translate(-38,-22) scale(1,1)"><path fill="none" stroke="#000000" d="M 376 344 L 536 344 L 536 448 L 376 448 L 376 344 Z Z" stroke-miterlimit="10"></path></g><g transform="translate(-38,-22) scale(1,1)"><path fill="none" stroke="#000000" d="M 376 369 L 536 369" stroke-miterlimit="10"></path></g><g transform="translate(-38,-22) scale(1,1)"><path fill="none" stroke="#000000" d="M 376 422 L 536 422" stroke-miterlimit="10"></path></g><g transform="translate(-38,-22) scale(1,1)"><g><path fill="none" stroke="none"></path><text fill="#000000" stroke="none" font-family="Arial" font-size="13px" font-style="normal" font-weight="bold" text-decoration="none" x="428" y="363.5">Disciplina</text></g></g><g transform="translate(-38,-22) scale(1,1)"><g><path fill="none" stroke="none"></path><text fill="#000000" stroke="none" font-family="Arial" font-size="13px" font-style="normal" font-weight="normal" text-decoration="none" x="381" y="386.5">+Nome_Disciplina: String</text></g></g><g transform="translate(-38,-22) scale(1,1)"><g><path fill="none" stroke="none"></path><text fill="#000000" stroke="none" font-family="Arial" font-size="13px" font-style="normal" font-weight="normal" text-decoration="none" x="381" y="401.5">+Descrição: String</text></g></g><g transform="translate(-38,-22) scale(1,1)"><g><path fill="none" stroke="none"></path><text fill="#000000" stroke="none" font-family="Arial" font-size="13px" font-style="normal" font-weight="normal" text-decoration="none" x="381" y="416.5">+Modulos: String</text></g></g><g transform="translate(-38,-22) scale(1,1)"><rect fill="#C0C0C0" stroke="none" x="559" y="39" width="154" height="310" opacity="0.2"></rect></g><g transform="translate(-38,-22) scale(1,1)"><rect fill="#ffffff" stroke="none" x="552" y="32" width="154" height="310"></rect></g><g transform="translate(-38,-22) scale(1,1)"><path fill="none" stroke="#000000" d="M 552 32 L 706 32 L 706 342 L 552 342 L 552 32 Z Z" stroke-miterlimit="10"></path></g><g transform="translate(-38,-22) scale(1,1)"><path fill="none" stroke="#000000" d="M 552 57 L 706 57" stroke-miterlimit="10"></path></g><g transform="translate(-38,-22) scale(1,1)"><path fill="none" stroke="#000000" d="M 552 140 L 706 140" stroke-miterlimit="10"></path></g><g transform="translate(-38,-22) scale(1,1)"><g><path fill="none" stroke="none"></path><text fill="#000000" stroke="none" font-family="Arial" font-size="13px" font-style="normal" font-weight="bold" text-decoration="none" x="589" y="51.5">Administrador</text></g></g><g transform="translate(-38,-22) scale(1,1)"><g><path fill="none" stroke="none"></path><text fill="#000000" stroke="none" font-family="Arial" font-size="13px" font-style="normal" font-weight="normal" text-decoration="none" x="557" y="74.5">+Nome: String</text></g></g><g transform="translate(-38,-22) scale(1,1)"><g><path fill="none" stroke="none"></path><text fill="#000000" stroke="none" font-family="Arial" font-size="13px" font-style="normal" font-weight="normal" text-decoration="none" x="557" y="89.5">+Senha: Varchar</text></g></g><g transform="translate(-38,-22) scale(1,1)"><g><path fill="none" stroke="none"></path><text fill="#000000" stroke="none" font-family="Arial" font-size="13px" font-style="normal" font-weight="normal" text-decoration="none" x="557" y="104.5">+Função: String</text></g></g><g transform="translate(-38,-22) scale(1,1)"><g><path fill="none" stroke="none"></path><text fill="#000000" stroke="none" font-family="Arial" font-size="13px" font-style="normal" font-weight="normal" text-decoration="none" x="557" y="119.5">+Telefone: number</text></g></g><g transform="translate(-38,-22) scale(1,1)"><g><path fill="none" stroke="none"></path><text fill="#000000" stroke="none" font-family="Arial" font-size="13px" font-style="normal" font-weight="normal" text-decoration="none" x="557" y="134.5">+Email: String</text></g></g><g transform="translate(-38,-22) scale(1,1)"><g><path fill="none" stroke="none"></path><text fill="#000000" stroke="none" font-family="Arial" font-size="13px" font-style="normal" font-weight="normal" text-decoration="none" x="557" y="157.5">+Cadastrar Professores()</text></g></g><g transform="translate(-38,-22) scale(1,1)"><g><path fill="none" stroke="none"></path><text fill="#000000" stroke="none" font-family="Arial" font-size="13px" font-style="normal" font-weight="normal" text-decoration="none" x="557" y="172.5">+Editar Professores()</text></g></g><g transform="translate(-38,-22) scale(1,1)"><g><path fill="none" stroke="none"></path><text fill="#000000" stroke="none" font-family="Arial" font-size="13px" font-style="normal" font-weight="normal" text-decoration="none" x="557" y="187.5">+Remover Professores()</text></g></g><g transform="translate(-38,-22) scale(1,1)"><g><path fill="none" stroke="none"></path><text fill="#000000" stroke="none" font-family="Arial" font-size="13px" font-style="normal" font-weight="normal" text-decoration="none" x="557" y="202.5">+Cadastrar Alunos()</text></g></g><g transform="translate(-38,-22) scale(1,1)"><g><path fill="none" stroke="none"></path><text fill="#000000" stroke="none" font-family="Arial" font-size="13px" font-style="normal" font-weight="normal" text-decoration="none" x="557" y="217.5">+Editar Alunos()</text></g></g><g transform="translate(-38,-22) scale(1,1)"><g><path fill="none" stroke="none"></path><text fill="#000000" stroke="none" font-family="Arial" font-size="13px" font-style="normal" font-weight="normal" text-decoration="none" x="557" y="232.5">+Remover Alunos()</text></g></g><g transform="translate(-38,-22) scale(1,1)"><g><path fill="none" stroke="none"></path><text fill="#000000" stroke="none" font-family="Arial" font-size="13px" font-style="normal" font-weight="normal" text-decoration="none" x="557" y="247.5">+Adicionar Disciplinas()</text></g></g><g transform="translate(-38,-22) scale(1,1)"><g><path fill="none" stroke="none"></path><text fill="#000000" stroke="none" font-family="Arial" font-size="13px" font-style="normal" font-weight="normal" text-decoration="none" x="557" y="262.5">+Editar Disciplinas()</text></g></g><g transform="translate(-38,-22) scale(1,1)"><g><path fill="none" stroke="none"></path><text fill="#000000" stroke="none" font-family="Arial" font-size="13px" font-style="normal" font-weight="normal" text-decoration="none" x="557" y="277.5">+Remover Disciplinas()</text></g></g><g transform="translate(-38,-22) scale(1,1)"><g><path fill="none" stroke="none"></path><text fill="#000000" stroke="none" font-family="Arial" font-size="13px" font-style="normal" font-weight="normal" text-decoration="none" x="557" y="292.5">+Operation2()</text></g></g><g transform="translate(-38,-22) scale(1,1)"><g><path fill="none" stroke="none"></path><text fill="#000000" stroke="none" font-family="Arial" font-size="13px" font-style="normal" font-weight="normal" text-decoration="none" x="557" y="307.5">+Logar()</text></g></g><g transform="translate(-38,-22) scale(1,1)"><g><path fill="none" stroke="none"></path><text fill="#000000" stroke="none" font-family="Arial" font-size="13px" font-style="normal" font-weight="normal" text-decoration="none" x="557" y="322.5">+Cadastar()</text></g></g><g transform="translate(-38,-22) scale(1,1)"><path fill="none" stroke="#000000" d="M 706 48 L 768 48 L 768 372 L 536 372" stroke-miterlimit="10"></path></g><g transform="translate(-38,-22) scale(1,1)"><path fill="#000000" stroke="none" d="M 546.1626748576241 367.790482243984 L 536 372 L 546.1626748576241 376.209517756016 L 558 372"></path></g><g transform="translate(-38,-22) scale(1,1)"><path fill="none" stroke="#000000" d="M 546.1626748576241 367.790482243984 L 536 372 L 546.1626748576241 376.209517756016 L 558 372 L 546.1626748576241 367.790482243984" stroke-miterlimit="10"></path></g><g transform="translate(-38,-22) scale(1,1)"><path fill="none" stroke="#000000" d="M 551 186 L 318 185" stroke-miterlimit="10"></path></g><g transform="translate(-38,-22) scale(1,1)"><path fill="#000000" stroke="none" d="M 328.18064769441884 180.8341372415639 L 318 185 L 328.1445148275774 189.25309521561206 L 339.999797383484 185.0944197312596"></path></g><g transform="translate(-38,-22) scale(1,1)"><path fill="none" stroke="#000000" d="M 328.18064769441884 180.8341372415639 L 318 185 L 328.1445148275774 189.25309521561206 L 339.999797383484 185.0944197312596 L 328.18064769441884 180.8341372415639" stroke-miterlimit="10"></path></g><g transform="translate(-38,-22) scale(1,1)"><path fill="none" stroke="#000000" d="M 706 68 L 760 68 L 760 592 L 208 592" stroke-miterlimit="10"></path></g><g transform="translate(-38,-22) scale(1,1)"><path fill="#000000" stroke="none" d="M 218.16267485762415 587.790482243984 L 208 592 L 218.16267485762415 596.209517756016 L 230 592"></path></g><g transform="translate(-38,-22) scale(1,1)"><path fill="none" stroke="#000000" d="M 218.16267485762415 587.790482243984 L 208 592 L 218.16267485762415 596.209517756016 L 230 592 L 218.16267485762415 587.790482243984" stroke-miterlimit="10"></path></g><g transform="translate(-38,-22) scale(1,1)"><path fill="none" stroke="#000000" d="M 194 104 L 194 84 L 346 84 L 346 328 L 352 328 L 352 360 L 376 360" stroke-miterlimit="10"></path></g><g transform="translate(-38,-22) scale(1,1)"><path fill="#000000" stroke="none" d="M 365.83732514237585 364.209517756016 L 376 360 L 365.83732514237585 355.790482243984 L 354 360"></path></g><g transform="translate(-38,-22) scale(1,1)"><path fill="none" stroke="#000000" d="M 365.83732514237585 364.209517756016 L 376 360 L 365.83732514237585 355.790482243984 L 354 360 L 365.83732514237585 364.209517756016" stroke-miterlimit="10"></path></g><g transform="translate(-38,-22) scale(1,1)"><path fill="none" stroke="#000000" d="M 536 356 L 558 356 L 558 560 L 208 560" stroke-miterlimit="10"></path></g><g transform="translate(-38,-22) scale(1,1)"><path fill="#000000" stroke="none" d="M 218.16267485762415 555.790482243984 L 208 560 L 218.16267485762415 564.209517756016 L 230 560"></path></g><g transform="translate(-38,-22) scale(1,1)"><path fill="none" stroke="#000000" d="M 218.16267485762415 555.790482243984 L 208 560 L 218.16267485762415 564.209517756016 L 230 560 L 218.16267485762415 555.790482243984" stroke-miterlimit="10"></path></g><g transform="translate(-38,-22) scale(1,1)"><path fill="none" stroke="#000000" d="M 194 104 L 194 84 L 346 84 L 346 368 L 136 368 L 136 456" stroke-miterlimit="10"></path></g><g transform="translate(-38,-22) scale(1,1)"><path fill="#FFFFFF" stroke="none" d="M 131.790482243984 445.83732514237585 L 136 456 L 140.209517756016 445.83732514237585 L 136 434"></path></g><g transform="translate(-38,-22) scale(1,1)"><path fill="none" stroke="#000000" d="M 131.790482243984 445.83732514237585 L 136 456 L 140.209517756016 445.83732514237585 L 136 434 L 131.790482243984 445.83732514237585" stroke-miterlimit="10"></path></g></g></svg>